<?xml version="1.0" standalone="no"?>
<!DOCTYPE svg PUBLIC "-//W3C//DTD SVG 20010904//EN"
 "http://www.w3.org/TR/2001/REC-SVG-20010904/DTD/svg10.dtd">
<svg version="1.0" xmlns="http://www.w3.org/2000/svg"
 width="271.000000pt" height="271.000000pt" viewBox="0 0 271.000000 271.000000"
 preserveAspectRatio="xMidYMid meet">
<metadata>
Created by potrace 1.14, written by Peter Selinger 2001-2017
</metadata>
<g transform="translate(0.000000,271.000000) scale(0.100000,-0.100000)"
fill="#000000" stroke="none">
<path d="M113 1773 c5 -8 11 -91 22 -278 3 -38 7 -108 10 -155 9 -134 14 -208
21 -315 4 -55 8 -111 9 -125 2 -14 3 -35 4 -47 1 -23 1 -23 181 -23 l180 0 14
33 c40 91 59 137 131 305 42 100 78 182 80 182 1 0 3 -30 4 -67 1 -38 4 -84 6
-103 2 -19 7 -93 10 -165 4 -71 8 -141 8 -155 l2 -25 170 -3 170 -2 33 87 c19
49 38 97 43 108 14 31 275 707 283 733 7 22 6 22 -71 22 l-78 0 -64 -168 c-35
-92 -84 -219 -109 -282 -24 -63 -50 -130 -56 -147 -19 -51 -23 -48 -25 19 -2
35 -4 88 -6 118 -12 190 -17 282 -20 330 -2 30 -4 72 -4 93 l-1 38 -151 -3
-152 -3 -59 -155 c-33 -85 -64 -164 -69 -175 -5 -11 -33 -85 -63 -165 -33 -86
-56 -135 -57 -120 -4 71 -7 143 -14 330 -4 113 -8 223 -9 245 l-1 40 -188 3
c-104 1 -186 -1 -184 -5z"/>
<path d="M1616 1768 c-6 -17 -17 -67 -22 -98 -3 -14 -11 -53 -19 -88 -8 -34
-17 -74 -20 -90 -2 -15 -16 -79 -30 -142 -14 -63 -28 -126 -30 -140 -3 -14
-16 -77 -30 -140 -14 -63 -28 -126 -30 -140 -4 -23 -8 -45 -17 -80 -3 -13 38
-15 314 -18 l316 -2 7 42 c3 24 9 51 11 61 5 16 -7 17 -149 17 l-154 0 13 58
c7 31 15 68 18 82 3 14 8 36 11 50 7 30 25 121 25 126 0 2 58 4 129 4 143 0
133 -5 147 73 l6 37 -126 0 c-69 0 -126 4 -126 8 0 8 39 193 55 260 5 22 8 22
159 22 l154 0 6 38 c4 20 9 45 12 55 5 16 -14 17 -311 17 -244 0 -317 -3 -319
-12z"/>
<path d="M2359 1723 c-7 -32 -13 -67 -15 -78 -1 -11 -3 -20 -4 -20 -1 0 -3 -8
-5 -17 -2 -10 -21 -102 -44 -205 -22 -104 -43 -201 -46 -218 -3 -16 -8 -39
-10 -50 -3 -11 -7 -31 -10 -45 -4 -14 -8 -36 -11 -50 -3 -14 -14 -65 -25 -115
-10 -49 -19 -90 -19 -92 0 -2 74 -3 163 -3 124 0 164 3 164 13 1 6 13 64 27
127 14 63 33 149 41 190 9 41 23 106 32 145 9 38 18 79 19 90 5 30 74 347 80
368 5 16 -7 17 -160 17 l-165 0 -12 -57z"/>
</g>
</svg>
